<svg t="1679560491290" class="icon" viewBox="0 0 1024 1024" version="1.1" xmlns="http://www.w3.org/2000/svg" p-id="1254" width="200" height="200"><path d="M818.164753 1022.466301H204.684973a25.561658 25.561658 0 0 1-25.561658-25.561658 178.931603 178.931603 0 0 1 200.914628-178.931603 11.502746 11.502746 0 0 0 9.969047-3.067398 10.991513 10.991513 0 0 0 3.834248-8.435347v-51.123315a283.223165 283.223165 0 0 1-153.369945-251.52671v-194.779831a209.349975 209.349975 0 0 1 209.605592-209.605591 6.901648 6.901648 0 0 0 5.367948-2.300549 4.601098 4.601098 0 0 0 0-3.578632c-1.533699-15.592611-3.578632-30.929606-5.879181-46.010984a40.643035 40.643035 0 0 1 17.12631-39.109336 42.176735 42.176735 0 0 1 42.687968-4.601098 353.517723 353.517723 0 0 1 113.749376 85.120319 149.791313 149.791313 0 0 0 44.988517 33.485771 208.583125 208.583125 0 0 1 114.260609 186.6001v204.49326a269.41987 269.41987 0 0 1-153.369945 243.858213v51.123315a10.991513 10.991513 0 0 0 3.834249 8.435347 11.502746 11.502746 0 0 0 9.969046 3.067399 180.976535 180.976535 0 0 1 140.589117 43.710434A178.931603 178.931603 0 0 1 843.72641 996.904643a25.561658 25.561658 0 0 1-25.561657 25.561658zM232.802796 971.342986h557.244134a129.341987 129.341987 0 0 0-40.387419-70.038942A127.808288 127.808288 0 0 0 648.94658 869.096355a65.182227 65.182227 0 0 1-51.123315-15.592611 62.626061 62.626061 0 0 1-20.960559-46.777833V741.288068a25.561658 25.561658 0 0 1 15.848228-23.772342 218.807788 218.807788 0 0 0 137.521717-204.49326v-204.49326a157.45981 157.45981 0 0 0-86.398402-141.100349 200.914628 200.914628 0 0 1-60.069896-44.988518 303.161258 303.161258 0 0 0-79.241138-63.648527c0 9.969046 2.300549 19.938093 3.323016 29.90714a55.21318 55.21318 0 0 1-14.314529 42.943584 58.791812 58.791812 0 0 1-43.199201 18.915627 158.482277 158.482277 0 0 0-158.482276 158.482276v196.31353a230.054918 230.054918 0 0 0 137.777334 211.650524 25.561658 25.561658 0 0 1 15.592611 23.516725v67.227159a62.626061 62.626061 0 0 1-20.960559 46.777834 65.182227 65.182227 0 0 1-51.123315 15.592611 127.808288 127.808288 0 0 0-100.712931 31.185222A129.341987 129.341987 0 0 0 232.802796 971.342986z m413.076385-127.808288z" fill="#FFC824" p-id="1255"></path><path d="M645.879181 843.534698a37.32002 37.32002 0 0 1-42.432351-35.786321V741.288068a244.880679 244.880679 0 0 0 153.369945-227.243135v-204.493261a183.532701 183.532701 0 0 0-100.201698-163.850224 178.931603 178.931603 0 0 1-52.657014-39.364953 332.301548 332.301548 0 0 0-105.569646-78.729905 15.592611 15.592611 0 0 0-22.238642 16.359461c2.811782 15.592611 4.856715 31.696455 6.134798 47.544683a25.561658 25.561658 0 0 1 0 10.991513 373.967049 373.967049 0 0 1 32.207689 31.440838 143.912132 143.912132 0 0 0 46.010983 35.019471A184.043934 184.043934 0 0 1 664.794808 334.602097V519.157264c-18.915627 235.678482-371.410884 234.400399-396.461308 0a246.414378 246.414378 0 0 1-2.300549-28.37344v14.570145a255.616575 255.616575 0 0 0 153.369945 235.167249v67.227159A37.32002 37.32002 0 0 1 376.970544 843.534698 153.369945 153.369945 0 0 0 204.684973 996.904643h613.47978a153.369945 153.369945 0 0 0-172.285572-153.369945z" fill="#FFC824" p-id="1256"></path><path d="M450.076885 150.558163a31.952072 31.952072 0 0 0 32.207688-34.508238c0-4.089865 0-7.924114-1.533699-12.013979a31.952072 31.952072 0 0 1-30.418373 20.960559 184.043934 184.043934 0 0 0-184.29955 184.043934v25.561658a184.043934 184.043934 0 0 1 184.043934-184.043934z" fill="#FFC824" p-id="1257"></path><path d="M398.95357 320.798802a25.561658 25.561658 0 0 0-25.561658 25.561657v30.673989a25.561658 25.561658 0 0 0 51.123315 0v-30.673989a25.561658 25.561658 0 0 0-25.561657-25.561657zM562.548178 320.798802a25.561658 25.561658 0 0 0-25.561658 25.561657v30.673989a25.561658 25.561658 0 0 0 51.123315 0v-30.673989a25.561658 25.561658 0 0 0-25.561657-25.561657z" fill="#6B400D" p-id="1258"></path><path d="M541.843235 757.391912a236.700949 236.700949 0 0 0 61.859211-16.103844" fill="#FFFFFF" p-id="1259"></path><path d="M562.548178 541.907139a25.561658 25.561658 0 0 0-36.041937-3.323015 70.294558 70.294558 0 0 1-89.977035 0 25.561658 25.561658 0 0 0-32.718921 39.364952 121.417873 121.417873 0 0 0 155.414877 0A25.561658 25.561658 0 0 0 562.548178 541.907139z" fill="#6B400D" p-id="1260"></path><path d="M767.041438 996.904643h102.24663M639.23315 996.904643h25.561658" fill="#FFFFFF" p-id="1261"></path><path d="M664.794808 1022.466301h-25.561658a25.561658 25.561658 0 0 1 0-51.123315h25.561658a25.561658 25.561658 0 0 1 0 51.123315z" fill="#6B400D" p-id="1262"></path><path d="M153.561658 996.904643h383.424862" fill="#FFFFFF" p-id="1263"></path><path d="M869.288068 971.342986h-27.60659a178.931603 178.931603 0 0 0-198.869696-153.369946 11.502746 11.502746 0 0 1-9.969046-3.067398 10.991513 10.991513 0 0 1-3.834249-8.435347v-51.123315a269.41987 269.41987 0 0 0 153.369945-243.858213v-204.49326a208.583125 208.583125 0 0 0-114.260609-186.6001 149.791313 149.791313 0 0 1-44.988517-33.485771A353.517723 353.517723 0 0 0 509.37993 3.834249a42.176735 42.176735 0 0 0-42.687968 4.601098 40.643035 40.643035 0 0 0-15.592611 39.109336c2.300549 15.081378 4.345482 30.418372 5.879181 46.010984a4.601098 4.601098 0 0 1 0 3.578632 6.901648 6.901648 0 0 1-5.367948 2.300549 209.349975 209.349975 0 0 0-209.605591 209.605591v196.31353a283.223165 283.223165 0 0 0 153.369945 251.52671v51.123315a10.991513 10.991513 0 0 1-3.834249 8.435347 11.502746 11.502746 0 0 1-9.969046 3.067399 178.931603 178.931603 0 0 0-198.869696 153.369945H153.561658a25.561658 25.561658 0 0 0 0 51.123315h383.424862a25.561658 25.561658 0 0 0 0-51.123315H232.802796a129.341987 129.341987 0 0 1 40.387419-70.038942A127.808288 127.808288 0 0 1 373.903145 869.096355a65.182227 65.182227 0 0 0 51.123315-15.592611 62.626061 62.626061 0 0 0 20.960559-46.777833V741.288068a25.561658 25.561658 0 0 0-15.592611-23.516725 230.054918 230.054918 0 0 1-138.7998-212.417374v-196.31353a158.482277 158.482277 0 0 1 158.482277-158.482276 58.791812 58.791812 0 0 0 43.199201-18.915627 55.21318 55.21318 0 0 0 14.314528-42.943584c0-9.969046-2.044933-19.938093-3.323015-29.90714a303.161258 303.161258 0 0 1 80.263604 64.159761 200.914628 200.914628 0 0 0 60.069895 44.988517 157.45981 157.45981 0 0 1 86.398403 141.100349v204.49326a218.807788 218.807788 0 0 1-137.521718 204.493261l-1.789316 1.278082a219.574638 219.574638 0 0 1-53.168247 13.547679 25.561658 25.561658 0 0 0 3.067399 51.123315h3.067398a278.36645 278.36645 0 0 0 32.974539-6.390414v30.162755a62.626061 62.626061 0 0 0 20.960559 46.777834 65.182227 65.182227 0 0 0 51.123315 15.592611 127.808288 127.808288 0 0 1 100.71293 31.185222A129.341987 129.341987 0 0 1 790.04693 971.342986H767.041438a25.561658 25.561658 0 0 0 0 51.123315h102.24663a25.561658 25.561658 0 0 0 0-51.123315z" fill="#6B400D" p-id="1264"></path></svg>