<?xml version="1.0" standalone="no"?><!DOCTYPE svg PUBLIC "-//W3C//DTD SVG 1.1//EN" "http://www.w3.org/Graphics/SVG/1.1/DTD/svg11.dtd"><svg t="1679709618983" class="icon" viewBox="0 0 1024 1024" version="1.1" xmlns="http://www.w3.org/2000/svg" p-id="11372" xmlns:xlink="http://www.w3.org/1999/xlink" width="200" height="200"><path d="M426.542817 0.599756h170.530695C710.527404-1.899228 833.477436 32.886635 911.045912 112.954095c80.167419 77.568476 114.853323 200.518508 112.454298 313.972399v170.530696c2.399025 113.453892-32.286878 236.403924-112.454298 313.972399-77.568476 80.167419-200.518508 114.853323-313.9724 112.454298H426.542817c-113.453892 2.399025-236.403924-32.286878-313.9724-112.454298C32.402998 833.961073-2.282906 711.011041 0.116119 597.557149V427.026454C-2.282906 313.472603 32.402998 190.52257 112.570417 112.954095 190.138893 32.886635 313.088925-1.899228 426.542817 0.599756z" fill="#F6416C" p-id="11373"></path><path d="M112.570417 112.954095C36.90117 186.224317 1.715469 299.878128 0.116119 407.834254c137.943939 0 249.79848-111.954501 249.798481-249.89844 0-42.782613-10.795613-83.066241-29.687935-118.251942-40.583507 17.892728-77.568476 42.182857-107.656248 73.270223z" fill="#FFFFFF" opacity=".5" p-id="11374"></path><path d="M605.670018 359.753794c0 61.774894 43.782207 113.353932 102.058523 125.349057v-33.486391c0-66.472985-32.286878-125.249098-81.66681-161.234473-12.894759 20.091835-20.391713 43.882166-20.391713 69.371807z" fill="#FF2A8E" opacity=".5" p-id="11375"></path><path d="M514.607027 823.765217c39.98375 0 72.470548-28.88826 72.470548-64.473798h-144.941095c0 35.585538 32.486797 64.473797 72.470547 64.473798zM745.313267 679.623797L715.725291 661.43119c-5.197888-6.197481-8.096709-14.094272-8.096709-22.290941V451.61646c0-93.761895-64.173919-172.230005-150.338901-192.921595v-9.69606c0-26.689153-21.591225-48.280379-48.280379-48.280378-26.689153 0-48.280379 21.591225-48.280379 48.280378v11.29541c-83.066241 22.890697-144.14142 99.759457-144.14142 191.322245V637.740818c0 8.096709-2.798863 15.893541-7.89679 22.091022l-30.587569 20.091835c-18.492485 22.49086-2.698903 56.676966 26.089397 56.676966h415.131288c28.988219-0.099959 44.7818-34.485985 25.989438-56.976844zM565.686268 494.89887L513.307555 604.754224c-1.799269 3.698497-7.097116 2.399025-7.097116-1.699309l-0.099959-67.972376-44.681841 0.099959c-2.798863 0-4.598131-2.998781-3.398619-5.597725l52.378713-109.855354c1.799269-3.698497 7.097116-2.399025 7.097116 1.69931l0.099959 67.972375 44.681841-0.099959c2.798863 0 4.598131 2.998781 3.398619 5.597725z" fill="#FFFFFF" p-id="11376"></path><path d="M707.728541 471.308457v-19.691997c0-62.574569-28.588382-118.351901-73.170263-154.637154-11.095491 17.792769-17.392931 38.684278-17.392931 61.175138-0.099959 55.377494 38.684278 101.658685 90.563194 113.154013z" fill="#F6416C" opacity=".5" p-id="11377"></path></svg>